solid exported
	facet normal 1 0 0
		outer loop
			vertex 49.529629316573825 50.80280423173244 50.737267139135085
			vertex 49.529629316573825 -49.19719576826756 50.737267139135085
			vertex 49.529629316573825 50.80280423173244 -49.262732860864915
		endloop
	endfacet
	facet normal 1 0 0
		outer loop
			vertex 49.529629316573825 -49.19719576826756 50.737267139135085
			vertex 49.529629316573825 -49.19719576826756 -49.262732860864915
			vertex 49.529629316573825 50.80280423173244 -49.262732860864915
		endloop
	endfacet
	facet normal -1 0 0
		outer loop
			vertex -50.470370683426175 50.80280423173244 -49.262732860864915
			vertex -50.470370683426175 -49.19719576826756 -49.262732860864915
			vertex -50.470370683426175 50.80280423173244 50.737267139135085
		endloop
	endfacet
	facet normal -1 0 0
		outer loop
			vertex -50.470370683426175 -49.19719576826756 -49.262732860864915
			vertex -50.470370683426175 -49.19719576826756 50.737267139135085
			vertex -50.470370683426175 50.80280423173244 50.737267139135085
		endloop
	endfacet
	facet normal 0 1 0
		outer loop
			vertex -50.470370683426175 50.80280423173244 -49.262732860864915
			vertex -50.470370683426175 50.80280423173244 50.737267139135085
			vertex 49.529629316573825 50.80280423173244 -49.262732860864915
		endloop
	endfacet
	facet normal 0 1 0
		outer loop
			vertex -50.470370683426175 50.80280423173244 50.737267139135085
			vertex 49.529629316573825 50.80280423173244 50.737267139135085
			vertex 49.529629316573825 50.80280423173244 -49.262732860864915
		endloop
	endfacet
	facet normal 0 -1 0
		outer loop
			vertex -50.470370683426175 -49.19719576826756 50.737267139135085
			vertex -50.470370683426175 -49.19719576826756 -49.262732860864915
			vertex 49.529629316573825 -49.19719576826756 50.737267139135085
		endloop
	endfacet
	facet normal 0 -1 0
		outer loop
			vertex -50.470370683426175 -49.19719576826756 -49.262732860864915
			vertex 49.529629316573825 -49.19719576826756 -49.262732860864915
			vertex 49.529629316573825 -49.19719576826756 50.737267139135085
		endloop
	endfacet
	facet normal 0 0 1
		outer loop
			vertex -50.470370683426175 50.80280423173244 50.737267139135085
			vertex -50.470370683426175 -49.19719576826756 50.737267139135085
			vertex 49.529629316573825 50.80280423173244 50.737267139135085
		endloop
	endfacet
	facet normal 0 0 1
		outer loop
			vertex -50.470370683426175 -49.19719576826756 50.737267139135085
			vertex 49.529629316573825 -49.19719576826756 50.737267139135085
			vertex 49.529629316573825 50.80280423173244 50.737267139135085
		endloop
	endfacet
	facet normal 0 0 -1
		outer loop
			vertex 49.529629316573825 50.80280423173244 -49.262732860864915
			vertex 49.529629316573825 -49.19719576826756 -49.262732860864915
			vertex -50.470370683426175 50.80280423173244 -49.262732860864915
		endloop
	endfacet
	facet normal 0 0 -1
		outer loop
			vertex 49.529629316573825 -49.19719576826756 -49.262732860864915
			vertex -50.470370683426175 -49.19719576826756 -49.262732860864915
			vertex -50.470370683426175 50.80280423173244 -49.262732860864915
		endloop
	endfacet
endsolid exported
